<svg xmlns="http://www.w3.org/2000/svg" xmlns:xlink="http://www.w3.org/1999/xlink" fill="none" version="1.1" width="12.25" height="10.5" viewBox="0 0 12.25 10.5"><g transform="matrix(1,0,0,-1,0,21)"><path d="M0.246094,16.37891Q0,16.10547,0,15.75Q0,15.39453,0.246094,15.121089999999999L4.62109,10.746094Q4.89453,10.5,5.25,10.5Q5.60547,10.5,5.87891,10.746094Q6.125,11.019531,6.125,11.375Q6.125,11.73047,5.87891,12.00391L2.98047,14.875L11.375,14.875Q11.7578,14.875,12.0039,15.121089999999999Q12.25,15.36719,12.25,15.75Q12.25,16.13281,12.0039,16.37891Q11.7578,16.625,11.375,16.625L2.98047,16.625L5.87891,19.496090000000002Q6.125,19.76953,6.125,20.125Q6.125,20.48047,5.87891,20.7539Q5.60547,21,5.25,21Q4.89453,21,4.62109,20.7539L0.246094,16.37891Z" fill="#4B5563" fill-opacity="1" style="mix-blend-mode:passthrough"/></g></svg>