<svg xmlns="http://www.w3.org/2000/svg" xmlns:xlink="http://www.w3.org/1999/xlink" fill="currentColor" version="1.1" width="24" height="24" viewBox="0 0 21 32"><defs><clipPath id="master_svg0_2_7817"><rect x="0" y="4" width="21" height="24" rx="0"/></clipPath></defs><g><rect x="0" y="0" width="21" height="32" rx="0" fill="#000000" fill-opacity="0" style="mix-blend-mode:passthrough"/><g><rect x="0" y="0" width="21" height="32" rx="0" fill="#000000" fill-opacity="0" style="mix-blend-mode:passthrough"/><g clip-path="url(#master_svg0_2_7817)"><g transform="matrix(1,0,0,-1,0,54.125)"><g><path d="M10.5,42.9531Q8.20312,42.9063,6.70312,41.3594Q5.15625,39.8594,5.10938,37.5625Q5.15625,35.26562,6.70312,33.76562Q8.20312,32.21875,10.5,32.17188Q12.7969,32.21875,14.2969,33.76562Q15.8438,35.26562,15.8906,37.5625Q15.8438,39.8594,14.2969,41.3594Q12.7969,42.9063,10.5,42.9531ZM10.5,34.04688Q9,34.09375,8.01562,35.07812Q7.03125,36.0625,6.98438,37.5625Q7.03125,39.0625,8.01562,40.0469Q9,41.0313,10.5,41.0781Q12,41.0313,12.9844,40.0469Q13.9688,39.0625,14.0156,37.5625Q13.9688,36.0625,12.9844,35.07812Q12,34.09375,10.5,34.04688ZM17.3906,43.1875Q17.25,42.0156,16.125,41.9219Q14.9531,42.0156,14.8594,43.1875Q14.8594,43.7031,15.2344,44.0781Q15.5625,44.4063,16.125,44.4063Q16.6406,44.4063,17.0156,44.0781Q17.3438,43.7031,17.3906,43.1875ZM20.9531,41.875Q20.9531,44.4531,19.2188,46.2813Q17.3906,48.0156,14.8594,48.0156Q13.9219,48.0625,12.1875,48.0625Q10.5,48.0625,8.8125,48.0625Q7.07812,48.0625,6.1875,48.0156Q3.65625,48.0156,1.78125,46.2813Q0.046875,44.4531,0.09375,41.9219Q0,40.9844,0,39.25Q0,37.5625,0,35.875Q0,34.1875,0.09375,33.25Q0.046875,30.67188,1.78125,28.84375Q3.60938,27.109375,6.1875,27.15625Q7.07812,27.109375,8.8125,27.0625Q10.5,27.0625,12.1875,27.0625Q13.9219,27.109375,14.8594,27.15625Q17.3906,27.109375,19.2188,28.84375Q20.9531,30.67188,20.9531,33.25Q21,34.1875,21,35.875Q21,37.5625,21,39.25Q21,40.9844,20.9531,41.9219L20.9531,41.875ZM18.7031,31.375Q18.0938,29.96875,16.6875,29.35938Q15.75,29.03125,14.1562,28.98438Q12.5625,28.9375,11.25,28.9375Q10.8281,28.9375,10.5,28.9375Q10.1719,28.9375,9.75,28.9375Q8.4375,28.9375,6.84375,28.98438Q5.29688,29.03125,4.3125,29.35938Q2.90625,29.96875,2.29688,31.375Q1.96875,32.35938,1.92188,33.90625Q1.875,35.5,1.875,36.8125Q1.875,37.2344,1.875,37.5625Q1.875,37.8906,1.875,38.3125Q1.875,39.625,1.92188,41.2187Q1.96875,42.8125,2.29688,43.75Q2.90625,45.1563,4.3125,45.7656Q5.29688,46.0937,6.84375,46.1406Q8.4375,46.2344,9.75,46.1875Q10.1719,46.1875,10.5,46.1875Q10.8281,46.1875,11.25,46.1875Q12.5625,46.1875,14.1562,46.1406Q15.75,46.0937,16.6875,45.7656Q18.0938,45.1563,18.7031,43.75Q19.0312,42.8125,19.0781,41.2187Q19.1719,39.625,19.125,38.3125Q19.125,37.8906,19.125,37.5625Q19.125,37.2344,19.125,36.8125Q19.1719,35.5,19.0781,33.90625Q19.0312,32.3125,18.7031,31.375Z" fill="#000000" fill-opacity="1" style="mix-blend-mode:passthrough"/></g></g></g></g></g></svg>